<svg width="24" height="25" viewBox="0 0 24 25" fill="none" xmlns="http://www.w3.org/2000/svg">
<path fill-rule="evenodd" clip-rule="evenodd" d="M11.9995 20.5236C7.3597 17.8893 4.76404 15.2636 3.50731 12.9749C2.22413 10.638 2.33007 8.65555 3.05158 7.24004C4.52976 4.34007 8.73559 3.41223 11.2935 6.64732L11.9994 7.54016L12.7054 6.64736C15.2637 3.41216 19.4698 4.34013 20.9479 7.24004C21.6694 8.65553 21.7753 10.638 20.492 12.9749C19.2352 15.2636 16.6394 17.8892 11.9995 20.5236ZM11.9995 4.74615C8.51978 1.3572 3.33709 2.71627 1.4479 6.42261C0.419411 8.44037 0.400305 11.0563 1.92953 13.8413C3.44643 16.6038 6.47793 19.5317 11.5641 22.3428L11.9994 22.5835L12.4348 22.3429C17.5211 19.5317 20.5528 16.6038 22.0698 13.8413C23.5991 11.0563 23.5801 8.44038 22.5516 6.42261C20.6624 2.71621 15.4795 1.35725 11.9995 4.74615Z" fill="#262F56"/>
</svg>
