<svg width="16" height="19" viewBox="0 0 16 19" fill="none" xmlns="http://www.w3.org/2000/svg">
<path fill-rule="evenodd" clip-rule="evenodd" d="M8.97404 18.5415C11.0898 17.0979 15.9167 13.3051 15.9167 8.75016C15.9167 4.37791 12.3723 0.833496 8 0.833496C3.62775 0.833496 0.083334 4.37791 0.083334 8.75016C0.083334 13.3051 4.91025 17.0979 7.02596 18.5415C7.61759 18.9452 8.38241 18.9452 8.97404 18.5415ZM8 11.2502C9.38071 11.2502 10.5 10.1309 10.5 8.75016C10.5 7.36945 9.38071 6.25016 8 6.25016C6.61929 6.25016 5.5 7.36945 5.5 8.75016C5.5 10.1309 6.61929 11.2502 8 11.2502Z" fill="#898989"/>
</svg>
