<?xml version="1.0" encoding="utf-8"?>
<!-- Generator: Adobe Illustrator 26.2.1, SVG Export Plug-In . SVG Version: 6.00 Build 0)  -->
<svg version="1.1" id="Слой_1" xmlns="http://www.w3.org/2000/svg" xmlns:xlink="http://www.w3.org/1999/xlink" x="0px" y="0px"
	 viewBox="0 0 24 24" style="enable-background:new 0 0 24 24;" xml:space="preserve">
<style type="text/css">
	.st0{fill:#262F56;}
</style>
<path class="st0" d="M7.6,14.7c-0.4,0-0.7,0-1-0.2c-0.5-0.2-1-0.6-1.4-1c-0.4-0.5-0.5-1.2-0.7-2.3L3.7,6.2c0,0,0,0,0,0L3.3,4
	c0-0.2-0.1-0.5-0.1-0.6c-0.1,0-0.3,0-0.6,0H1C0.5,3.4,0.1,3,0.1,2.5S0.5,1.6,1,1.6h1.7c0.6,0,0.9,0,1.3,0.2c0.3,0.1,0.6,0.4,0.8,0.7
	C5,2.8,5,3.1,5.1,3.7l0.3,1.5l13.1,0.4c1.2,0,1.8,0.1,2.4,0.4c0.5,0.3,1,0.7,1.2,1.3c0.3,0.6,0.3,1.3,0.3,2.4c0,1.1,0,1.7-0.3,2.3
	c-0.2,0.5-0.6,1-1.1,1.3c-0.6,0.3-1.2,0.4-2.3,0.5L9,14.6C8.5,14.7,8,14.7,7.6,14.7z M5.7,6.9l0.7,4c0.1,0.8,0.2,1.3,0.4,1.5
	c0.1,0.2,0.3,0.3,0.5,0.4c0.2,0.1,0.7,0,1.6,0l9.7-0.9c0.8-0.1,1.3-0.1,1.5-0.3c0.2-0.1,0.3-0.3,0.4-0.5c0.1-0.2,0.1-0.7,0.1-1.6
	c0-0.9,0-1.4-0.1-1.6c-0.1-0.2-0.3-0.4-0.5-0.5c-0.2-0.1-0.8-0.1-1.6-0.2L5.7,6.9z"/>
<path class="st0" d="M8.5,21.9c-1.6,0-2.9-1.3-2.9-2.9s1.3-2.9,2.9-2.9s2.9,1.3,2.9,2.9S10.1,21.9,8.5,21.9z M8.5,17.9
	c-0.6,0-1.1,0.5-1.1,1.1s0.5,1.1,1.1,1.1s1.1-0.5,1.1-1.1S9.1,17.9,8.5,17.9z"/>
<path class="st0" d="M18,21.9c-1.6,0-2.9-1.3-2.9-2.9s1.3-2.9,2.9-2.9s2.9,1.3,2.9,2.9S19.6,21.9,18,21.9z M18,17.9
	c-0.6,0-1.1,0.5-1.1,1.1s0.5,1.1,1.1,1.1s1.1-0.5,1.1-1.1S18.6,17.9,18,17.9z"/>
</svg>
