<svg width="20" height="20" viewBox="0 0 20 20" fill="none" xmlns="http://www.w3.org/2000/svg">
<path fill-rule="evenodd" clip-rule="evenodd" d="M2.43359 8.75026C2.43359 5.26167 5.26167 2.43359 8.75026 2.43359C12.2388 2.43359 15.0669 5.26168 15.0669 8.75026C15.0669 10.1696 14.598 11.4805 13.8078 12.5351L17.3033 16.0306C17.6548 16.382 17.6548 16.9519 17.3033 17.3034C16.9518 17.6548 16.382 17.6548 16.0305 17.3034L12.535 13.8079C11.4805 14.5981 10.1696 15.067 8.75026 15.067C5.26166 15.067 2.43359 12.2388 2.43359 8.75026ZM8.75026 4.23359C6.25578 4.23359 4.23359 6.25578 4.23359 8.75026C4.23359 11.2447 6.25579 13.267 8.75026 13.267C9.99779 13.267 11.1257 12.7624 11.944 11.9441C12.7624 11.1257 13.2669 9.9978 13.2669 8.75026C13.2669 6.25577 11.2447 4.23359 8.75026 4.23359Z" fill="#333333"/>
</svg>
